<svg xmlns="http://www.w3.org/2000/svg" width="36" height="40" fill="none"><path fill="#000" d="M11.042 4.422a2.208 2.208 0 1 0 0 4.417 2.208 2.208 0 0 0 0-4.417Zm-6.25 0a6.627 6.627 0 0 1 12.5 0h15.833a2.208 2.208 0 1 1 0 4.417H17.291a6.627 6.627 0 0 1-12.499 0H2.208a2.208 2.208 0 0 1 0-4.417h2.584Zm19.5 13.25a2.208 2.208 0 1 0 0 4.417 2.208 2.208 0 0 0 0-4.417Zm-6.25 0a6.627 6.627 0 0 1 12.5 0h2.583a2.208 2.208 0 1 1 0 4.417h-2.584a6.627 6.627 0 0 1-12.499 0H2.208a2.208 2.208 0 1 1 0-4.417h15.834Zm-7 13.25a2.208 2.208 0 1 0 0 4.416 2.208 2.208 0 0 0 0-4.416Zm-6.25 0a6.627 6.627 0 0 1 12.5 0h15.833a2.208 2.208 0 1 1 0 4.417H17.291a6.627 6.627 0 0 1-12.499 0H2.208a2.208 2.208 0 1 1 0-4.417h2.584Z"/></svg>