<svg width="41" height="58" fill="none" xmlns="http://www.w3.org/2000/svg"><path d="M20.5 58 6.004 41.012c-2.867-3.36-4.82-7.64-5.61-12.3C-.397 24.05.009 19.22 1.56 14.83 3.111 10.44 5.74 6.689 9.11 4.049 12.482 1.409 16.445 0 20.5 0s8.018 1.409 11.39 4.049c3.37 2.64 5.998 6.392 7.55 10.782 1.551 4.39 1.957 9.22 1.166 13.88-.79 4.66-2.743 8.941-5.61 12.301L20.5 58Zm11.275-20.762c2.23-2.614 3.748-5.943 4.363-9.568.615-3.624.3-7.381-.907-10.796-1.207-3.414-3.25-6.332-5.873-8.385-2.622-2.053-5.705-3.15-8.858-3.15-3.153 0-6.236 1.097-8.858 3.15-2.622 2.053-4.666 4.971-5.873 8.385-1.206 3.415-1.522 7.172-.907 10.796.615 3.625 2.133 6.954 4.363 9.568L20.5 50.45l11.275-13.213ZM20.5 29.363c-1.208 0-2.367-.563-3.221-1.564-.855-1.001-1.335-2.359-1.335-3.775s.48-2.774 1.335-3.775c.854-1.001 2.013-1.564 3.221-1.564 1.208 0 2.367.563 3.221 1.564.855 1.001 1.335 2.36 1.335 3.775 0 1.416-.48 2.774-1.335 3.775-.854 1.002-2.013 1.564-3.221 1.564Z" fill="#333"/></svg>