<svg xmlns="http://www.w3.org/2000/svg" width="27" height="25" fill="none"><path fill="#292929" d="M19.575 0c-2.349 0-4.603 1.104-6.075 2.847C12.028 1.104 9.774 0 7.425 0 3.267 0 0 3.297 0 7.493c0 5.15 4.59 9.346 11.543 15.722L13.5 25l1.957-1.798C22.41 16.839 27 12.643 27 7.493 27 3.297 23.733 0 19.575 0Zm-5.94 21.185-.135.137-.135-.137C6.939 15.313 2.7 11.431 2.7 7.493c0-2.725 2.025-4.768 4.725-4.768 2.079 0 4.104 1.349 4.82 3.215h2.524c.702-1.866 2.727-3.215 4.806-3.215 2.7 0 4.725 2.043 4.725 4.768 0 3.938-4.239 7.82-10.665 13.692Z"/></svg>